<?xml version="1.0" encoding="UTF-8"?>
<svg version="1.1" xmlns="http://www.w3.org/2000/svg" width="192" height="192">
    <path
        d="M0 0 C1.22982605 -0.00043808 2.4596521 -0.00087616 3.72674561 -0.00132751 C7.08600624 0.00040022 10.44470877 0.01540994 13.80387068 0.03639436 C17.31923231 0.0551916 20.83460197 0.05691399 24.3500061 0.06047058 C31.00099623 0.06978213 37.65183781 0.09438375 44.30276263 0.12451905 C51.87710183 0.15809087 59.45144826 0.17455604 67.02584338 0.18960536 C82.60146198 0.22093419 98.17693251 0.27367723 113.75244141 0.34057617 C113.75244141 1.00057617 113.75244141 1.66057617 113.75244141 2.34057617 C115.40244141 2.67057617 117.05244141 3.00057617 118.75244141 3.34057617 C118.75244141 4.00057617 118.75244141 4.66057617 118.75244141 5.34057617 C119.41244141 5.34057617 120.07244141 5.34057617 120.75244141 5.34057617 C125.13345318 11.48951593 125.2532639 16.36434196 125.00244141 23.77807617 C124.98439453 24.79579102 124.96634766 25.81350586 124.94775391 26.86206055 C124.90092138 29.35589272 124.83535568 31.84772664 124.75244141 34.34057617 C125.51169922 33.83526367 126.27095703 33.32995117 127.05322266 32.80932617 C128.04708984 32.15963867 129.04095703 31.50995117 130.06494141 30.84057617 C131.05107422 30.19088867 132.03720703 29.54120117 133.05322266 28.87182617 C135.75244141 27.34057617 135.75244141 27.34057617 138.75244141 27.34057617 C138.75244141 26.68057617 138.75244141 26.02057617 138.75244141 25.34057617 C140.73244141 24.84557617 140.73244141 24.84557617 142.75244141 24.34057617 C142.75244141 23.68057617 142.75244141 23.02057617 142.75244141 22.34057617 C145.62066459 21.38450178 147.69488886 21.1136491 150.68994141 21.02807617 C151.54458984 20.99069336 152.39923828 20.95331055 153.27978516 20.91479492 C156.71660431 21.50660106 157.66093919 22.55395489 159.75244141 25.34057617 C160.13161135 28.26643009 160.26953648 30.81096521 160.22241211 33.73339844 C160.22460251 34.5777243 160.22679291 35.42205017 160.22904968 36.29196167 C160.23135977 39.08070141 160.20511174 41.86838357 160.17822266 44.65698242 C160.173299 46.59463669 160.16999996 48.53229571 160.16825867 50.46995544 C160.16061856 54.52944137 160.14005668 58.58857474 160.10913086 62.64794922 C160.06952975 67.85575026 160.05151771 73.063322 160.04182148 78.27125645 C160.0318547 83.23319627 160.01196265 88.19507994 159.99072266 93.15698242 C159.98732691 94.1062668 159.98393116 95.05555119 159.98043251 96.03360176 C159.96887225 98.71485216 159.95035387 101.39595662 159.92944336 104.07714844 C159.92675446 104.87359268 159.92406555 105.67003693 159.92129517 106.49061584 C159.88986851 109.69847885 159.77414056 112.27547872 158.75244141 115.34057617 C157.76244141 115.34057617 156.77244141 115.34057617 155.75244141 115.34057617 C155.75244141 116.00057617 155.75244141 116.66057617 155.75244141 117.34057617 C150.48332661 118.89031582 147.13415674 117.59000061 142.36962891 115.09057617 C140.14862256 113.86519336 137.94452222 112.61685434 135.75244141 111.34057617 C135.75244141 110.68057617 135.75244141 110.02057617 135.75244141 109.34057617 C133.44244141 108.68057617 131.13244141 108.02057617 128.75244141 107.34057617 C128.75244141 106.68057617 128.75244141 106.02057617 128.75244141 105.34057617 C127.43244141 105.01057617 126.11244141 104.68057617 124.75244141 104.34057617 C124.77338867 104.97036377 124.79433594 105.60015137 124.81591797 106.24902344 C124.8996424 109.13354189 124.95127762 112.01780385 125.00244141 114.90307617 C125.03595703 115.8937207 125.06947266 116.88436523 125.10400391 117.9050293 C125.18886564 124.29087473 124.61296003 128.17429389 120.75244141 133.34057617 C118.50244141 134.27807617 118.50244141 134.27807617 116.75244141 134.34057617 C116.75244141 135.00057617 116.75244141 135.66057617 116.75244141 136.34057617 C114.05151167 137.24088609 112.51210966 137.46608104 109.74282837 137.46755981 C108.52322166 137.47178955 108.52322166 137.47178955 107.27897644 137.47610474 C106.39059586 137.47408051 105.50221527 137.47205627 104.58691406 137.4699707 C103.17915962 137.47259918 103.17915962 137.47259918 101.7429657 137.47528076 C98.6341264 137.47968932 95.5253438 137.47676429 92.41650391 137.47338867 C90.25800567 137.47406211 88.0995075 137.47503247 85.94100952 137.47628784 C81.4133024 137.47776356 76.88561499 137.47561471 72.35791016 137.47094727 C66.55504088 137.46525688 60.75221792 137.46852541 54.94935036 137.47451973 C50.49011893 137.47813455 46.03089847 137.47698239 41.57166672 137.47439194 C39.43224456 137.47372487 37.29282141 137.47454342 35.15340042 137.47687149 C32.16115944 137.47941232 29.16899323 137.47553685 26.17675781 137.4699707 C25.29242569 137.47199493 24.40809357 137.47401917 23.4969635 137.47610474 C19.44970226 137.46216506 15.70099521 137.35698874 11.75244141 136.34057617 C11.75244141 135.68057617 11.75244141 135.02057617 11.75244141 134.34057617 C9.44244141 134.01057617 7.13244141 133.68057617 4.75244141 133.34057617 C4.75244141 132.68057617 4.75244141 132.02057617 4.75244141 131.34057617 C4.04732422 131.26709961 3.34220703 131.19362305 2.61572266 131.11791992 C-1.06236288 130.11936737 -3.14656642 128.34073696 -6.06005859 125.90307617 C-7.03587891 125.09999023 -8.01169922 124.2969043 -9.01708984 123.46948242 C-9.75314453 122.76694336 -10.48919922 122.0644043 -11.24755859 121.34057617 C-11.24755859 120.68057617 -11.24755859 120.02057617 -11.24755859 119.34057617 C-11.90755859 119.34057617 -12.56755859 119.34057617 -13.24755859 119.34057617 C-20.65784512 109.46614618 -24.38074994 100.49864318 -24.42456055 88.1730957 C-24.43113174 87.36430969 -24.43770294 86.55552368 -24.44447327 85.722229 C-24.46412264 83.05594783 -24.47584836 80.38972268 -24.48583984 77.72338867 C-24.48991537 76.80997585 -24.4939909 75.89656303 -24.49818993 74.95547104 C-24.51901211 70.12339253 -24.53333208 65.29134212 -24.54272461 60.45922852 C-24.55379848 55.477003 -24.58822067 50.49522291 -24.62789631 45.51315498 C-24.65406878 41.67319929 -24.66241686 37.83334987 -24.66600609 33.99331284 C-24.67086811 32.15695045 -24.68247114 30.32059268 -24.70104408 28.48431778 C-24.7254559 25.91146901 -24.72446738 23.33977541 -24.7175293 20.7668457 C-24.73033936 20.01440582 -24.74314941 19.26196594 -24.75634766 18.48672485 C-24.70303544 13.04184317 -23.25475454 9.87794999 -20.24755859 5.34057617 C-19.58755859 5.34057617 -18.92755859 5.34057617 -18.24755859 5.34057617 C-18.24755859 4.68057617 -18.24755859 4.02057617 -18.24755859 3.34057617 C-12.45162506 -0.49492268 -6.77740834 -0.06320128 0 0 Z "
        fill="#4CAF60" transform="translate(28.24755859375,24.659423828125)" />
    <path
        d="M0 0 C1.22982605 -0.00043808 2.4596521 -0.00087616 3.72674561 -0.00132751 C7.08600624 0.00040022 10.44470877 0.01540994 13.80387068 0.03639436 C17.31923231 0.0551916 20.83460197 0.05691399 24.3500061 0.06047058 C31.00099623 0.06978213 37.65183781 0.09438375 44.30276263 0.12451905 C51.87710183 0.15809087 59.45144826 0.17455604 67.02584338 0.18960536 C82.60146198 0.22093419 98.17693251 0.27367723 113.75244141 0.34057617 C113.75244141 1.00057617 113.75244141 1.66057617 113.75244141 2.34057617 C115.40244141 2.67057617 117.05244141 3.00057617 118.75244141 3.34057617 C118.75244141 4.00057617 118.75244141 4.66057617 118.75244141 5.34057617 C119.41244141 5.34057617 120.07244141 5.34057617 120.75244141 5.34057617 C125.13345318 11.48951593 125.2532639 16.36434196 125.00244141 23.77807617 C124.98439453 24.79579102 124.96634766 25.81350586 124.94775391 26.86206055 C124.90092138 29.35589272 124.83535568 31.84772664 124.75244141 34.34057617 C125.51169922 33.83526367 126.27095703 33.32995117 127.05322266 32.80932617 C128.04708984 32.15963867 129.04095703 31.50995117 130.06494141 30.84057617 C131.05107422 30.19088867 132.03720703 29.54120117 133.05322266 28.87182617 C135.75244141 27.34057617 135.75244141 27.34057617 138.75244141 27.34057617 C138.75244141 26.68057617 138.75244141 26.02057617 138.75244141 25.34057617 C140.73244141 24.84557617 140.73244141 24.84557617 142.75244141 24.34057617 C142.75244141 23.68057617 142.75244141 23.02057617 142.75244141 22.34057617 C145.62066459 21.38450178 147.69488886 21.1136491 150.68994141 21.02807617 C151.54458984 20.99069336 152.39923828 20.95331055 153.27978516 20.91479492 C156.71660431 21.50660106 157.66093919 22.55395489 159.75244141 25.34057617 C160.13161135 28.26643009 160.26953648 30.81096521 160.22241211 33.73339844 C160.22460251 34.5777243 160.22679291 35.42205017 160.22904968 36.29196167 C160.23135977 39.08070141 160.20511174 41.86838357 160.17822266 44.65698242 C160.173299 46.59463669 160.16999996 48.53229571 160.16825867 50.46995544 C160.16061856 54.52944137 160.14005668 58.58857474 160.10913086 62.64794922 C160.06952975 67.85575026 160.05151771 73.063322 160.04182148 78.27125645 C160.0318547 83.23319627 160.01196265 88.19507994 159.99072266 93.15698242 C159.98732691 94.1062668 159.98393116 95.05555119 159.98043251 96.03360176 C159.96887225 98.71485216 159.95035387 101.39595662 159.92944336 104.07714844 C159.92675446 104.87359268 159.92406555 105.67003693 159.92129517 106.49061584 C159.88986851 109.69847885 159.77414056 112.27547872 158.75244141 115.34057617 C157.76244141 115.34057617 156.77244141 115.34057617 155.75244141 115.34057617 C155.75244141 116.00057617 155.75244141 116.66057617 155.75244141 117.34057617 C150.48332661 118.89031582 147.13415674 117.59000061 142.36962891 115.09057617 C140.14862256 113.86519336 137.94452222 112.61685434 135.75244141 111.34057617 C135.75244141 110.68057617 135.75244141 110.02057617 135.75244141 109.34057617 C133.44244141 108.68057617 131.13244141 108.02057617 128.75244141 107.34057617 C128.75244141 106.68057617 128.75244141 106.02057617 128.75244141 105.34057617 C127.43244141 105.01057617 126.11244141 104.68057617 124.75244141 104.34057617 C124.77338867 104.97036377 124.79433594 105.60015137 124.81591797 106.24902344 C124.8996424 109.13354189 124.95127762 112.01780385 125.00244141 114.90307617 C125.03595703 115.8937207 125.06947266 116.88436523 125.10400391 117.9050293 C125.18866986 124.2761423 124.66183919 128.21476505 120.75244141 133.34057617 C119.76244141 133.67057617 118.77244141 134.00057617 117.75244141 134.34057617 C118.07677658 133.24593552 118.40111176 132.15129486 118.73527527 131.02348328 C120.02924271 125.81284258 120.0404491 120.75923049 120.02709961 115.4140625 C120.03221054 114.34803299 120.03732147 113.28200348 120.04258728 112.18367004 C120.05642399 108.67992453 120.05553165 105.17637691 120.05322266 101.67260742 C120.05711141 99.22979154 120.06144645 96.78697633 120.06620789 94.34416199 C120.07365629 89.23430178 120.07338775 84.12451071 120.06811523 79.01464844 C120.06230722 72.46412054 120.07929065 65.91387415 120.10245991 59.36339283 C120.11717946 54.32340337 120.11807162 49.28348211 120.11495018 44.24347496 C120.11546378 41.82772957 120.12070879 39.4119804 120.1307621 36.99625587 C120.14308119 33.62361832 120.13636281 30.25153475 120.12475586 26.87890625 C120.1323996 25.88086975 120.14004333 24.88283325 120.1479187 23.85455322 C120.10925538 18.77866735 119.90679697 15.5407884 116.75244141 11.34057617 C116.75244141 10.68057617 116.75244141 10.02057617 116.75244141 9.34057617 C112.61487668 7.20045648 109.38622985 6.21553707 104.71780396 6.21359253 C103.15742401 6.20936279 103.15742401 6.20936279 101.56552124 6.20504761 C99.85424545 6.20808395 99.85424545 6.20808395 98.10839844 6.21118164 C96.90654907 6.20942932 95.70469971 6.207677 94.46643066 6.20587158 C91.16883506 6.20222063 87.87130208 6.20308217 84.57370996 6.20625067 C81.12204561 6.20878156 77.67038394 6.20643458 74.21871948 6.2048645 C68.41989664 6.20304446 62.62108653 6.20544429 56.82226562 6.21020508 C50.12229297 6.21564226 43.42235076 6.21388834 36.72237885 6.20837867 C30.96856969 6.20383674 25.21476969 6.20320245 19.46095932 6.20581734 C16.02519792 6.20737482 12.58945081 6.20758846 9.15369034 6.20428085 C5.32087273 6.20084892 1.48808904 6.20560957 -2.34472656 6.21118164 C-3.48152863 6.20915741 -4.61833069 6.20713318 -5.7895813 6.20504761 C-6.83547424 6.20786743 -7.88136719 6.21068726 -8.95895386 6.21359253 C-9.86486708 6.21396955 -10.7707803 6.21434658 -11.70414543 6.21473503 C-14.30660676 6.34349771 -16.70954806 6.76492088 -19.24755859 7.34057617 C-19.24755859 8.00057617 -19.24755859 8.66057617 -19.24755859 9.34057617 C-20.56755859 9.67057617 -21.88755859 10.00057617 -23.24755859 10.34057617 C-21.87255859 7.84057617 -21.87255859 7.84057617 -20.24755859 5.34057617 C-19.58755859 5.34057617 -18.92755859 5.34057617 -18.24755859 5.34057617 C-18.24755859 4.68057617 -18.24755859 4.02057617 -18.24755859 3.34057617 C-12.45162506 -0.49492268 -6.77740834 -0.06320128 0 0 Z "
        fill="#4CAF50" transform="translate(28.24755859375,24.659423828125)" />
    <path
        d="M0 0 C7.5635779 -1.05890091 7.5635779 -1.05890091 10.828125 1.34765625 C12.40011307 3.15385467 13.72003169 4.97748597 15 7 C15.61875 7.969375 16.2375 8.93875 16.875 9.9375 C18.4023721 14.09534628 18.56281867 16.56780299 18 21 C15.625 24 15.625 24 13 26 C12.34 26 11.68 26 11 26 C11.33 28.97 11.66 31.94 12 35 C12.66 35 13.32 35 14 35 C18 41.75 18 41.75 18 44 C18.66 44 19.32 44 20 44 C20.495 45.98 20.495 45.98 21 48 C21.66 48 22.32 48 23 48 C23.598125 48.804375 24.19625 49.60875 24.8125 50.4375 C27.2536288 53.29710802 28.34382438 53.6953187 32 54 C32 53.34 32 52.68 32 52 C33.41543415 51.80341192 34.83244031 51.61812454 36.25 51.4375 C37.43335937 51.28087891 37.43335937 51.28087891 38.640625 51.12109375 C41.00532874 50.99972651 42.7511037 51.30366743 45 52 C45 52.66 45 53.32 45 54 C45.639375 54.268125 46.27875 54.53625 46.9375 54.8125 C49 56 49 56 50 59 C50.66 59 51.32 59 52 59 C52.495 60.98 52.495 60.98 53 63 C53.66 63 54.32 63 55 63 C55 65.64 55 68.28 55 71 C54.34 71 53.68 71 53 71 C52.505 72.485 52.505 72.485 52 74 C49.70832354 76.9791794 47.66464055 77.5047783 44 78 C44 78.66 44 79.32 44 80 C33.82143696 80.7508776 28.22405714 77.73771428 20 72 C18.515 71.01 18.515 71.01 17 70 C17 69.34 17 68.68 17 68 C16.401875 67.731875 15.80375 67.46375 15.1875 67.1875 C13.00152146 66.00082594 11.58667406 64.90400887 10 63 C10 62.34 10 61.68 10 61 C8.515 60.505 8.515 60.505 7 60 C3 54.62857143 3 54.62857143 3 52 C2.34 52 1.68 52 1 52 C0.67 50.68 0.34 49.36 0 48 C-0.66 48 -1.32 48 -2 48 C-2.33 46.35 -2.66 44.7 -3 43 C-3.66 43 -4.32 43 -5 43 C-5.67667998 41.75539217 -6.34094719 40.50403104 -7 39.25 C-7.37125 38.55390625 -7.7425 37.8578125 -8.125 37.140625 C-9 35 -9 35 -9 31 C-9.66 31 -10.32 31 -11 31 C-11.97945122 26.91117983 -12.13391426 23.07361649 -12.125 18.875 C-12.12757812 17.65554687 -12.13015625 16.43609375 -12.1328125 15.1796875 C-12 12 -12 12 -11 9 C-10.34 9 -9.68 9 -9 9 C-8.7525 8.401875 -8.505 7.80375 -8.25 7.1875 C-6.80807503 4.66413131 -5.47450374 3.49969924 -3 2 C-2.01 2 -1.02 2 0 2 C0 1.34 0 0.68 0 0 Z "
        fill="#F5F7FF" transform="translate(55,56)" />
    <path
        d="M0 0 C1.22982605 -0.00043808 2.4596521 -0.00087616 3.72674561 -0.00132751 C7.08600624 0.00040022 10.44470877 0.01540994 13.80387068 0.03639436 C17.31923231 0.0551916 20.83460197 0.05691399 24.3500061 0.06047058 C31.00099623 0.06978213 37.65183781 0.09438375 44.30276263 0.12451905 C51.87710183 0.15809087 59.45144826 0.17455604 67.02584338 0.18960536 C82.60146198 0.22093419 98.17693251 0.27367723 113.75244141 0.34057617 C113.75244141 1.00057617 113.75244141 1.66057617 113.75244141 2.34057617 C115.40244141 2.67057617 117.05244141 3.00057617 118.75244141 3.34057617 C118.75244141 4.00057617 118.75244141 4.66057617 118.75244141 5.34057617 C119.41244141 5.34057617 120.07244141 5.34057617 120.75244141 5.34057617 C125.01613414 11.41486365 125.32747649 16.18126092 125.27001953 23.48901367 C125.27702881 24.59069885 125.28403809 25.69238403 125.29125977 26.82745361 C125.30881711 30.45708671 125.29722422 34.0859356 125.28369141 37.71557617 C125.28638695 40.2447118 125.29026989 42.77384643 125.29528809 45.30297852 C125.30118012 50.59882448 125.29301302 55.89439124 125.27392578 61.19018555 C125.25215932 67.29961509 125.25921169 73.40851056 125.2812314 79.51792717 C125.30161925 85.4120818 125.29939947 91.30607152 125.28770447 97.20025635 C125.28503933 99.70086746 125.28829942 102.20149225 125.29762268 104.7020874 C125.30780027 108.19913652 125.29226841 111.69516538 125.27001953 115.19213867 C125.27811646 116.22195862 125.28621338 117.25177856 125.29455566 118.31280518 C125.2218874 124.48947763 124.50519245 128.35051196 120.75244141 133.34057617 C119.76244141 133.67057617 118.77244141 134.00057617 117.75244141 134.34057617 C118.07677658 133.24593552 118.40111176 132.15129486 118.73527527 131.02348328 C120.02924271 125.81284258 120.0404491 120.75923049 120.02709961 115.4140625 C120.03221054 114.34803299 120.03732147 113.28200348 120.04258728 112.18367004 C120.05642399 108.67992453 120.05553165 105.17637691 120.05322266 101.67260742 C120.05711141 99.22979154 120.06144645 96.78697633 120.06620789 94.34416199 C120.07365629 89.23430178 120.07338775 84.12451071 120.06811523 79.01464844 C120.06230722 72.46412054 120.07929065 65.91387415 120.10245991 59.36339283 C120.11717946 54.32340337 120.11807162 49.28348211 120.11495018 44.24347496 C120.11546378 41.82772957 120.12070879 39.4119804 120.1307621 36.99625587 C120.14308119 33.62361832 120.13636281 30.25153475 120.12475586 26.87890625 C120.1323996 25.88086975 120.14004333 24.88283325 120.1479187 23.85455322 C120.10925538 18.77866735 119.90679697 15.5407884 116.75244141 11.34057617 C116.75244141 10.68057617 116.75244141 10.02057617 116.75244141 9.34057617 C112.61487668 7.20045648 109.38622985 6.21553707 104.71780396 6.21359253 C103.15742401 6.20936279 103.15742401 6.20936279 101.56552124 6.20504761 C99.85424545 6.20808395 99.85424545 6.20808395 98.10839844 6.21118164 C96.90654907 6.20942932 95.70469971 6.207677 94.46643066 6.20587158 C91.16883506 6.20222063 87.87130208 6.20308217 84.57370996 6.20625067 C81.12204561 6.20878156 77.67038394 6.20643458 74.21871948 6.2048645 C68.41989664 6.20304446 62.62108653 6.20544429 56.82226562 6.21020508 C50.12229297 6.21564226 43.42235076 6.21388834 36.72237885 6.20837867 C30.96856969 6.20383674 25.21476969 6.20320245 19.46095932 6.20581734 C16.02519792 6.20737482 12.58945081 6.20758846 9.15369034 6.20428085 C5.32087273 6.20084892 1.48808904 6.20560957 -2.34472656 6.21118164 C-3.48152863 6.20915741 -4.61833069 6.20713318 -5.7895813 6.20504761 C-6.83547424 6.20786743 -7.88136719 6.21068726 -8.95895386 6.21359253 C-9.86486708 6.21396955 -10.7707803 6.21434658 -11.70414543 6.21473503 C-14.30660676 6.34349771 -16.70954806 6.76492088 -19.24755859 7.34057617 C-19.24755859 8.00057617 -19.24755859 8.66057617 -19.24755859 9.34057617 C-20.56755859 9.67057617 -21.88755859 10.00057617 -23.24755859 10.34057617 C-21.87255859 7.84057617 -21.87255859 7.84057617 -20.24755859 5.34057617 C-19.58755859 5.34057617 -18.92755859 5.34057617 -18.24755859 5.34057617 C-18.24755859 4.68057617 -18.24755859 4.02057617 -18.24755859 3.34057617 C-12.45162506 -0.49492268 -6.77740834 -0.06320128 0 0 Z "
        fill="#4CAF80" transform="translate(28.24755859375,24.659423828125)" />
    <path
        d="M0 0 C0.33 0 0.66 0 1 0 C1.33 6.6 1.66 13.2 2 20 C2.66 19.67 3.32 19.34 4 19 C4.09276853 30.61357881 4.16379998 42.22706916 4.20724869 53.84094334 C4.2281042 59.2340207 4.25638496 64.62684415 4.30175781 70.01977539 C4.34528772 75.22636847 4.36915242 80.43271764 4.37950897 85.63947868 C4.38688748 87.62377702 4.40129605 89.60806232 4.42292023 91.59225655 C4.45204905 94.37633003 4.45595203 97.15940164 4.45410156 99.94360352 C4.47567322 101.16820282 4.47567322 101.16820282 4.49768066 102.4175415 C4.45731016 108.048007 3.31205429 111.40345381 0 116 C-1.485 116.495 -1.485 116.495 -3 117 C-2.67657623 115.90510254 -2.35315247 114.81020508 -2.01992798 113.68212891 C-0.72765728 108.47939949 -0.6927943 103.42389529 -0.68115234 98.0859375 C-0.67110672 97.0216301 -0.6610611 95.95732269 -0.65071106 94.86076355 C-0.61997982 91.3655142 -0.60287177 87.8703411 -0.5859375 84.375 C-0.56721778 81.94262033 -0.54764377 79.51024709 -0.5272522 77.07788086 C-0.47601008 70.69276736 -0.43634188 64.30763283 -0.39910889 57.92242432 C-0.35901962 51.4000532 -0.30794973 44.877769 -0.2578125 38.35546875 C-0.16114696 25.57037471 -0.07633897 12.78523074 0 0 Z "
        fill="#4CAF50" transform="translate(149,42)" />
    <path
        d="M0 0 C0.33 0 0.66 0 1 0 C2.26606321 5.62878834 2.26062479 11.12722655 2.3125 16.875 C2.34150391 17.93847656 2.37050781 19.00195312 2.40039062 20.09765625 C2.45294192 26.60593248 2.033638 30.78170795 -2 36 C-3.485 36.495 -3.485 36.495 -5 37 C-4.69255859 36.03126953 -4.69255859 36.03126953 -4.37890625 35.04296875 C-2.01559603 26.77703684 -1.50178248 18.85206002 -1.2109375 10.3203125 C-1.08079676 6.81263673 -0.67684443 3.450797 0 0 Z "
        fill="#4CAF50" transform="translate(151,122)" />
    <path
        d="M0 0 C0.309375 0.639375 0.61875 1.27875 0.9375 1.9375 C1.8345163 3.93610821 1.8345163 3.93610821 3 5 C3.09969841 6.74765452 3.12968045 8.4995103 3.125 10.25 C3.12757813 11.20390625 3.13015625 12.1578125 3.1328125 13.140625 C3.00628725 15.86463928 2.61005381 18.34675009 2 21 C-0.71486934 17.02389214 -0.22440753 12.86098023 -0.125 8.25 C-0.11597656 7.45722656 -0.10695312 6.66445313 -0.09765625 5.84765625 C-0.07417012 3.89830719 -0.03830137 1.94911425 0 0 Z "
        fill="#4CAF50" transform="translate(150,45)" />
    <path
        d="M0 0 C1.32 0.33 2.64 0.66 4 1 C4 5.29 4 9.58 4 14 C3.34 13.67 2.68 13.34 2 13 C1.3671875 11.07421875 1.3671875 11.07421875 0.875 8.6875 C0.70742187 7.90761719 0.53984375 7.12773438 0.3671875 6.32421875 C0 4 0 4 0 0 Z "
        fill="#4CAF50" transform="translate(149,36)" />
    <path
        d="M0 0 C2.51736102 3.77604154 3.2628809 6.31005137 2.5625 10.8125 C2.376875 11.534375 2.19125 12.25625 2 13 C0.21590198 9.93753253 -0.22880021 7.77920727 -0.125 4.25 C-0.10695312 3.45078125 -0.08890625 2.6515625 -0.0703125 1.828125 C-0.04710937 1.22484375 -0.02390625 0.6215625 0 0 Z "
        fill="#4CAF50" transform="translate(150,53)" />
    <path
        d="M0 0 C0.66 0 1.32 0 2 0 C0.70700306 2.88437779 -0.65941363 4.87219421 -3 7 C-3.66 6.67 -4.32 6.34 -5 6 C-3.38405168 3.95880212 -1.7143618 1.95927063 0 0 Z "
        fill="#D9E3FF" transform="translate(50,59)" />
    <path d="" fill="#00FFFF" transform="translate(0,0)" />
</svg>